<?xml version="1.0" standalone="yes"?>

<svg version="1.1" viewBox="0.0 0.0 960.0 540.0" fill="none" stroke="none" stroke-linecap="square" stroke-miterlimit="10" xmlns="http://www.w3.org/2000/svg" xmlns:xlink="http://www.w3.org/1999/xlink"><clipPath id="p.0"><path d="m0 0l960.0 0l0 540.0l-960.0 0l0 -540.0z" clip-rule="nonzero"></path></clipPath><g clip-path="url(#p.0)"><path fill="#ffffff" d="m0 0l960.0 0l0 540.0l-960.0 0z" fill-rule="evenodd"></path><path fill="#000000" fill-opacity="0.0" d="m256.37796 227.20735l0 -41.732285" fill-rule="evenodd"></path><path stroke="#595959" stroke-width="3.0" stroke-linejoin="round" stroke-linecap="butt" d="m256.37796 227.20735l0 -31.451035" fill-rule="evenodd"></path><path fill="#595959" stroke="#595959" stroke-width="3.0" stroke-linecap="butt" d="m256.37796 195.75633l3.3737488 3.3737488l-3.3737488 -9.269302l-3.373764 9.269302z" fill-rule="evenodd"></path><defs><radialGradient id="p.1" gradientUnits="userSpaceOnUse" gradientTransform="matrix(10.144344046084402 0.0 0.0 10.144344046084402 0.0 0.0)" spreadMethod="pad" cx="29.85566541872032" cy="15.687730183489924" fx="29.85566541872032" fy="15.687730183489924" r="10.144344329833984"><stop offset="0.0" stop-color="#fdecdb"></stop><stop offset="1.0" stop-color="#f0a963"></stop></radialGradient></defs><path fill="url(#p.1)" d="m203.6693 131.7559l198.39369 0l0 54.771652l-198.39369 0z" fill-rule="evenodd"></path><path fill="#000000" d="m282.3361 152.49924q2.5 0 3.40625 1.015625q0.90625 1.015625 0.90625 2.296875q0 1.078125 -0.53125 1.875q-0.53125 0.78125 -1.484375 1.171875l0 0.046875q1.25 0.265625 1.90625 1.140625q0.671875 0.859375 0.671875 2.125q0 1.65625 -1.15625 2.78125q-1.15625 1.109375 -2.890625 1.109375l-6.625 0l0 -13.5625l5.796875 0zm-0.296875 5.828125q1.359375 0 2.078125 -0.5q0.71875 -0.515625 0.71875 -1.671875q0 -1.0625 -0.609375 -1.59375q-0.59375 -0.546875 -2.171875 -0.546875l-3.71875 0l0 4.3125l3.703125 0zm0.890625 6.21875q1.109375 0 1.796875 -0.65625q0.6875 -0.65625 0.6875 -1.78125q0 -1.140625 -0.78125 -1.703125q-0.78125 -0.5625 -2.234375 -0.5625l-4.0625 0l0 4.703125l4.59375 0zm11.015015 -8.546875q0.046875 0 0.09375 0q0.046875 0 0.125 0.015625l0 1.703125q-1.8125 0 -2.6875 0.96875q-0.859375 0.96875 -0.859375 2.984375l0 4.390625l-1.625 0l0 -9.828125l1.53125 0l0 2.078125l0.03125 0q0.5625 -1.171875 1.390625 -1.734375q0.828125 -0.578125 2.0 -0.578125zm5.556427 0.015625q2.234375 0 3.5 1.4375q1.265625 1.4375 1.265625 3.703125q0 2.296875 -1.296875 3.71875q-1.296875 1.421875 -3.46875 1.421875q-2.125 0 -3.453125 -1.390625q-1.3125 -1.40625 -1.3125 -3.75q0 -2.328125 1.28125 -3.734375q1.296875 -1.40625 3.484375 -1.40625zm-3.0625 5.140625q0 1.703125 0.859375 2.703125q0.875 1.0 2.203125 1.0q1.328125 0 2.1875 -1.0q0.875 -1.015625 0.875 -2.703125q0 -1.671875 -0.859375 -2.6875q-0.859375 -1.03125 -2.21875 -1.03125q-1.296875 0 -2.171875 1.015625q-0.875 1.0 -0.875 2.703125zm11.244019 -8.65625l0 8.03125l4.484375 -4.296875l2.171875 0l-3.90625 3.578125l4.1875 6.25l-2.046875 0l-3.375 -5.125l-1.515625 1.40625l0 3.71875l-1.609375 0l0 -13.5625l1.609375 0zm12.05838 3.515625q2.109375 0 3.28125 1.53125q1.171875 1.515625 1.171875 3.890625l0 0.203125l-7.359375 0l0 0.109375q0 1.40625 0.8125 2.265625q0.828125 0.84375 2.25 0.84375q1.078125 0 1.703125 -0.5q0.640625 -0.5 0.84375 -1.421875l1.59375 0q-0.328125 1.640625 -1.4375 2.5q-1.09375 0.859375 -2.75 0.859375q-1.5625 0 -2.640625 -0.703125q-1.0625 -0.703125 -1.578125 -1.953125q-0.5 -1.25 -0.5 -2.546875q0 -2.171875 1.296875 -3.625q1.3125 -1.453125 3.3125 -1.453125zm-2.90625 4.1875l5.640625 0q-0.078125 -1.1875 -0.875 -1.96875q-0.78125 -0.796875 -1.96875 -0.796875q-1.109375 0 -1.90625 0.75q-0.78125 0.75 -0.890625 2.015625zm13.739197 -4.203125q0.046875 0 0.09375 0q0.046875 0 0.125 0.015625l0 1.703125q-1.8125 0 -2.6875 0.96875q-0.859375 0.96875 -0.859375 2.984375l0 4.390625l-1.625 0l0 -9.828125l1.53125 0l0 2.078125l0.03125 0q0.5625 -1.171875 1.390625 -1.734375q0.828125 -0.578125 2.0 -0.578125z" fill-rule="nonzero"></path><defs><radialGradient id="p.2" gradientUnits="userSpaceOnUse" gradientTransform="matrix(10.144344046084402 0.0 0.0 10.144344046084402 0.0 0.0)" spreadMethod="pad" cx="29.85566541872032" cy="24.90481823878399" fx="29.85566541872032" fy="24.90481823878399" r="10.144344329833984"><stop offset="0.0" stop-color="#fdecdb"></stop><stop offset="1.0" stop-color="#f0a963"></stop></radialGradient></defs><path fill="url(#p.2)" d="m203.6693 225.25722l198.39369 0l0 54.771652l-198.39369 0z" fill-rule="evenodd"></path><path fill="#000000" d="m279.2343 245.67242q2.40625 0 3.9375 1.15625q1.546875 1.140625 1.890625 3.34375l-1.796875 0q-0.265625 -1.4375 -1.328125 -2.203125q-1.046875 -0.765625 -2.703125 -0.765625q-2.171875 0 -3.421875 1.609375q-1.234375 1.59375 -1.234375 4.140625q0 2.328125 1.28125 3.875q1.28125 1.53125 3.375 1.53125q1.9375 0 3.140625 -1.171875q1.21875 -1.171875 1.21875 -3.03125l0 -0.21875l-4.34375 0l0 -1.515625l5.9375 0l0 7.140625l-1.125 0l-0.484375 -1.6875q-0.734375 0.96875 -1.890625 1.5q-1.140625 0.515625 -2.453125 0.515625q-2.78125 0 -4.625 -1.984375q-1.84375 -2.0 -1.84375 -4.859375q0 -3.21875 1.734375 -5.296875q1.75 -2.078125 4.734375 -2.078125zm12.109283 3.84375q2.0 0 2.84375 0.71875q0.84375 0.703125 0.84375 1.90625q0 5.109375 0 5.671875q0 0.546875 0.5 0.546875q0.109375 0 0.234375 -0.015625q0.140625 -0.03125 0.265625 -0.078125l0 1.265625q-0.234375 0.125 -0.53125 0.1875q-0.28125 0.078125 -0.625 0.078125q-0.671875 0 -1.03125 -0.375q-0.34375 -0.375 -0.34375 -1.15625q-0.640625 0.765625 -1.515625 1.15625q-0.859375 0.375 -1.9375 0.375q-1.53125 0 -2.390625 -0.71875q-0.859375 -0.71875 -0.859375 -2.046875q0 -1.3125 0.84375 -2.09375q0.84375 -0.78125 3.96875 -1.171875q1.0625 -0.125 1.4375 -0.390625q0.375 -0.28125 0.375 -0.8125q0 -0.828125 -0.53125 -1.21875q-0.515625 -0.40625 -1.65625 -0.40625q-1.203125 0 -1.796875 0.453125q-0.59375 0.453125 -0.640625 1.40625l-1.625 0q0.078125 -1.625 1.15625 -2.453125q1.078125 -0.828125 3.015625 -0.828125zm-2.84375 7.40625q0 0.6875 0.5 1.0625q0.5 0.375 1.40625 0.375q1.359375 0 2.171875 -0.671875q0.828125 -0.671875 0.828125 -1.515625l0 -1.6875q-0.40625 0.296875 -1.0625 0.40625q-0.65625 0.09375 -1.71875 0.234375q-1.078125 0.15625 -1.609375 0.59375q-0.515625 0.421875 -0.515625 1.203125zm13.739197 -7.421875q0.046875 0 0.09375 0q0.046875 0 0.125 0.015625l0 1.703125q-1.8125 0 -2.6875 0.96875q-0.859375 0.96875 -0.859375 2.984375l0 4.390625l-1.625 0l0 -9.828125l1.53125 0l0 2.078125l0.03125 0q0.5625 -1.171875 1.390625 -1.734375q0.828125 -0.578125 2.0 -0.578125zm2.993927 -3.5l0 5.078125l0.03125 0q0.375 -0.765625 1.1875 -1.15625q0.8125 -0.40625 1.953125 -0.40625q2.109375 0 3.3125 1.453125q1.203125 1.4375 1.203125 3.71875q0 2.28125 -1.203125 3.703125q-1.203125 1.40625 -3.265625 1.40625q-0.921875 0 -1.796875 -0.375q-0.875 -0.390625 -1.390625 -1.171875l-0.03125 0l0 1.3125l-1.625 0l0 -13.5625l1.625 0zm-0.0625 8.640625q0 1.71875 0.828125 2.71875q0.828125 1.0 2.265625 1.0q1.40625 0 2.171875 -1.0q0.78125 -1.0 0.78125 -2.78125q0 -1.59375 -0.8125 -2.609375q-0.8125 -1.03125 -2.25 -1.03125q-1.421875 0 -2.203125 1.046875q-0.78125 1.03125 -0.78125 2.65625zm11.152679 -8.640625l0 13.5625l-1.609375 0l0 -13.5625l1.609375 0zm6.5198364 3.515625q2.109375 0 3.28125 1.53125q1.171875 1.515625 1.171875 3.890625l0 0.203125l-7.359375 0l0 0.109375q0 1.40625 0.8125 2.265625q0.828125 0.84375 2.25 0.84375q1.078125 0 1.703125 -0.5q0.640625 -0.5 0.84375 -1.421875l1.59375 0q-0.328125 1.640625 -1.4375 2.5q-1.09375 0.859375 -2.75 0.859375q-1.5625 0 -2.640625 -0.703125q-1.0625 -0.703125 -1.578125 -1.953125q-0.5 -1.25 -0.5 -2.546875q0 -2.171875 1.296875 -3.625q1.3125 -1.453125 3.3125 -1.453125zm-2.90625 4.1875l5.640625 0q-0.078125 -1.1875 -0.875 -1.96875q-0.78125 -0.796875 -1.96875 -0.796875q-1.109375 0 -1.90625 0.75q-0.78125 0.75 -0.890625 2.015625zm13.739166 -4.203125q0.046875 0 0.09375 0q0.046875 0 0.125 0.015625l0 1.703125q-1.8125 0 -2.6874695 0.96875q-0.859375 0.96875 -0.859375 2.984375l0 4.390625l-1.625 0l0 -9.828125l1.53125 0l0 2.078125l0.03125 0q0.5625 -1.171875 1.3905945 -1.734375q0.828125 -0.578125 2.0 -0.578125z" fill-rule="nonzero"></path><defs><linearGradient id="p.3" gradientUnits="userSpaceOnUse" gradientTransform="matrix(6.2292289364977345 0.0 0.0 6.2292289364977345 0.0 0.0)" spreadMethod="pad" x1="4.676117898511773" y1="10.11569497046973" x2="4.676095267526353" y2="16.344923906926354"><stop offset="0.0" stop-color="#db0000"></stop><stop offset="1.0" stop-color="#540303"></stop></linearGradient></defs><path fill="url(#p.3)" d="m29.128609 82.414696l0 0c0 -10.715195 9.130569 -19.401573 20.3937 -19.401573l0 0c5.4087486 0 10.595966 2.0440903 14.420525 5.6825943c3.824562 3.6384964 5.973175 8.573364 5.973175 13.718979l0 0c0 10.715195 -9.130569 19.40158 -20.3937 19.40158l0 0c-11.26313 0 -20.3937 -8.686386 -20.3937 -19.40158z" fill-rule="evenodd"></path><path fill="#000000" fill-opacity="0.0" d="m69.91601 82.414696l133.7638 69.13386" fill-rule="evenodd"></path><path stroke="#595959" stroke-width="3.0" stroke-linejoin="round" stroke-linecap="butt" d="m69.91601 82.414696l124.63027 64.41334" fill-rule="evenodd"></path><path fill="#595959" stroke="#595959" stroke-width="3.0" stroke-linecap="butt" d="m194.54628 146.82803l-4.5461426 1.4481049l9.783539 1.2587738l-6.685501 -7.2530212z" fill-rule="evenodd"></path><path fill="#000000" fill-opacity="0.0" d="m69.90551 159.14174l133.7638 0" fill-rule="evenodd"></path><path stroke="#595959" stroke-width="3.0" stroke-linejoin="round" stroke-linecap="butt" d="m69.90551 159.14174l123.48254 0" fill-rule="evenodd"></path><path fill="#595959" stroke="#595959" stroke-width="3.0" stroke-linecap="butt" d="m193.38803 159.14174l-3.3737488 3.3737488l9.269302 -3.3737488l-9.269302 -3.373764z" fill-rule="evenodd"></path><path fill="#000000" fill-opacity="0.0" d="m69.91601 235.86876l133.7638 -68.755905" fill-rule="evenodd"></path><path stroke="#595959" stroke-width="3.0" stroke-linejoin="round" stroke-linecap="butt" d="m69.91601 235.86876l124.61976 -64.05577" fill-rule="evenodd"></path><path fill="#595959" stroke="#595959" stroke-width="3.0" stroke-linecap="butt" d="m194.53577 171.81297l-1.458252 4.5429077l6.7016754 -7.238083l-9.786316 1.2369385z" fill-rule="evenodd"></path><path fill="#000000" fill-opacity="0.0" d="m352.66403 186.28609l0.4409485 38.4252" fill-rule="evenodd"></path><path stroke="#595959" stroke-width="3.0" stroke-linejoin="round" stroke-linecap="butt" d="m352.66403 186.28609l0.32296753 28.144623" fill-rule="evenodd"></path><path fill="#595959" stroke="#595959" stroke-width="3.0" stroke-linecap="butt" d="m352.987 214.43071l-3.4122314 -3.3348236l3.479889 9.22998l3.2671814 -9.307404z" fill-rule="evenodd"></path><path fill="#000000" fill-opacity="0.0" d="m402.063 159.14174l133.7638 89.165344" fill-rule="evenodd"></path><path stroke="#595959" stroke-width="3.0" stroke-linejoin="round" stroke-linecap="butt" d="m402.063 159.14174l125.20892 83.4628" fill-rule="evenodd"></path><path fill="#595959" stroke="#595959" stroke-width="3.0" stroke-linecap="butt" d="m527.2719 242.60454l-4.678467 0.93595886l9.584045 2.3340302l-5.8414917 -7.9484863z" fill-rule="evenodd"></path><path fill="#000000" fill-opacity="0.0" d="m402.063 159.14174l133.7638 -96.220474" fill-rule="evenodd"></path><path stroke="#595959" stroke-width="3.0" stroke-linejoin="round" stroke-linecap="butt" d="m402.063 159.14174l125.41754 -90.21677" fill-rule="evenodd"></path><path fill="#595959" stroke="#595959" stroke-width="3.0" stroke-linecap="butt" d="m527.4805 68.92497l-0.76867676 4.7088776l5.5546265 -8.151573l-9.494812 2.6740036z" fill-rule="evenodd"></path><path fill="#000000" fill-opacity="0.0" d="m402.063 159.14174l133.7638 -34.4252" fill-rule="evenodd"></path><path stroke="#595959" stroke-width="3.0" stroke-linejoin="round" stroke-linecap="butt" d="m402.063 159.14174l123.806946 -31.862732" fill-rule="evenodd"></path><path fill="#595959" stroke="#595959" stroke-width="3.0" stroke-linecap="butt" d="m525.86993 127.279l-2.4263916 4.1081467l8.135925 -5.57753l-9.817627 -0.9570389z" fill-rule="evenodd"></path><path fill="#000000" fill-opacity="0.0" d="m402.063 159.14174l133.7638 27.370071" fill-rule="evenodd"></path><path stroke="#595959" stroke-width="3.0" stroke-linejoin="round" stroke-linecap="butt" d="m402.063 159.14174l123.69122 25.309067" fill-rule="evenodd"></path><path fill="#595959" stroke="#595959" stroke-width="3.0" stroke-linecap="butt" d="m525.7542 184.4508l-3.9815674 2.6289673l9.757446 -1.4471283l-8.404846 -5.1634064z" fill-rule="evenodd"></path><path fill="#000000" fill-opacity="0.0" d="m0 0l108.18898 0l0 38.80315l-108.18898 0z" fill-rule="evenodd"></path><path fill="#000000" d="m16.515625 13.357498q1.859375 0 2.96875 1.015625q1.109375 1.0 1.109375 2.984375q0 2.0 -1.109375 3.015625q-1.109375 1.0 -2.84375 1.0l-4.359375 0l0 5.546875l-1.796875 0l0 -13.5625l6.03125 0zm-0.5 6.5q1.28125 0 2.015625 -0.609375q0.75 -0.609375 0.75 -1.890625q0 -1.25 -0.734375 -1.859375q-0.71875 -0.625 -2.140625 -0.625l-3.625 0l0 4.984375l3.734375 0zm7.9008026 -2.765625l0 6.703125q0 0.828125 0.53125 1.375q0.53125 0.546875 1.46875 0.546875q1.390625 0 2.140625 -0.84375q0.765625 -0.84375 0.765625 -2.171875l0 -5.609375l1.625 0l0 9.828125l-1.53125 0l0 -1.5625l-0.03125 0q-0.546875 0.9375 -1.359375 1.375q-0.796875 0.421875 -1.84375 0.421875q-1.71875 0 -2.546875 -0.890625q-0.828125 -0.890625 -0.828125 -2.625l0 -6.546875l1.609375 0zm10.438217 -3.734375l0 5.078125l0.03125 0q0.375 -0.765625 1.1875 -1.15625q0.8125 -0.40625 1.953125 -0.40625q2.109375 0 3.3125 1.453125q1.203125 1.4375 1.203125 3.71875q0 2.28125 -1.203125 3.703125q-1.203125 1.40625 -3.265625 1.40625q-0.921875 0 -1.796875 -0.375q-0.875 -0.390625 -1.390625 -1.171875l-0.03125 0l0 1.3125l-1.625 0l0 -13.5625l1.625 0zm-0.0625 8.640625q0 1.71875 0.828125 2.71875q0.828125 1.0 2.265625 1.0q1.40625 0 2.171875 -1.0q0.78125 -1.0 0.78125 -2.78125q0 -1.59375 -0.8125 -2.609375q-0.8125 -1.03125 -2.25 -1.03125q-1.421875 0 -2.203125 1.046875q-0.78125 1.03125 -0.78125 2.65625zm11.152679 -8.640625l0 13.5625l-1.609375 0l0 -13.5625l1.609375 0zm4.144821 0l0 1.96875l-1.609375 0l0 -1.96875l1.609375 0zm0 3.734375l0 9.828125l-1.609375 0l0 -9.828125l1.609375 0zm5.707321 -0.21875q1.984375 0 2.9375 0.78125q0.96875 0.765625 1.0625 2.28125l-1.609375 0l0 -0.015625q-0.0625 -0.78125 -0.6875 -1.203125q-0.609375 -0.421875 -1.578125 -0.421875q-0.984375 0 -1.546875 0.328125q-0.5625 0.328125 -0.5625 0.921875q0 0.53125 0.5 0.875q0.5 0.34375 1.5 0.5625l1.515625 0.34375q1.4375 0.3125 2.171875 0.96875q0.75 0.65625 0.75 1.765625q0 1.4375 -1.125 2.265625q-1.125 0.828125 -3.0625 0.828125q-1.890625 0 -3.0 -0.84375q-1.09375 -0.84375 -1.171875 -2.484375l1.625 0q0.03125 0.90625 0.71875 1.40625q0.703125 0.484375 1.921875 0.484375q1.171875 0 1.765625 -0.359375q0.609375 -0.375 0.609375 -1.09375q0 -0.671875 -0.609375 -1.046875q-0.59375 -0.390625 -2.4375 -0.765625q-1.859375 -0.359375 -2.625 -1.015625q-0.75 -0.671875 -0.75 -1.765625q0 -1.296875 1.046875 -2.046875q1.046875 -0.75 2.640625 -0.75zm7.671875 -3.515625l0 5.1875l0.03125 0q0.359375 -0.796875 1.203125 -1.234375q0.84375 -0.4375 1.90625 -0.4375q1.78125 0 2.578125 0.90625q0.8125 0.90625 0.8125 2.59375l0 6.546875l-1.625 0l0 -6.703125q0 -0.84375 -0.53125 -1.375q-0.53125 -0.546875 -1.484375 -0.546875q-1.359375 0 -2.125 0.84375q-0.765625 0.828125 -0.765625 2.171875l0 5.609375l-1.609375 0l0 -13.5625l1.609375 0zm12.844467 3.515625q2.109375 0 3.28125 1.53125q1.171875 1.515625 1.171875 3.890625l0 0.203125l-7.359375 0l0 0.109375q0 1.40625 0.8125 2.265625q0.828125 0.84375 2.25 0.84375q1.078125 0 1.703125 -0.5q0.640625 -0.5 0.84375 -1.421875l1.59375 0q-0.328125 1.640625 -1.4375 2.5q-1.09375 0.859375 -2.75 0.859375q-1.5625 0 -2.640625 -0.703125q-1.0625 -0.703125 -1.578125 -1.953125q-0.5 -1.25 -0.5 -2.546875q0 -2.171875 1.296875 -3.625q1.3125 -1.453125 3.3125 -1.453125zm-2.90625 4.1875l5.640625 0q-0.078125 -1.1875 -0.875 -1.96875q-0.78125 -0.796875 -1.96875 -0.796875q-1.109375 0 -1.90625 0.75q-0.78125 0.75 -0.890625 2.015625zm13.739197 -4.203125q0.046875 0 0.09375 0q0.046875 0 0.125 0.015625l0 1.703125q-1.8125 0 -2.6875 0.96875q-0.859375 0.96875 -0.859375 2.984375l0 4.390625l-1.625 0l0 -9.828125l1.53125 0l0 2.078125l0.03125 0q0.5625 -1.171875 1.390625 -1.734375q0.828125 -0.578125 2.0 -0.578125zm4.587677 0.015625q1.984375 0 2.9375 0.78125q0.96875 0.765625 1.0625 2.28125l-1.609375 0l0 -0.015625q-0.0625 -0.78125 -0.6875 -1.203125q-0.609375 -0.421875 -1.578125 -0.421875q-0.984375 0 -1.546875 0.328125q-0.5625 0.328125 -0.5625 0.921875q0 0.53125 0.5 0.875q0.5 0.34375 1.5 0.5625l1.515625 0.34375q1.4375 0.3125 2.171875 0.96875q0.75 0.65625 0.75 1.765625q0 1.4375 -1.125 2.265625q-1.125 0.828125 -3.0625 0.828125q-1.890625 0 -3.0 -0.84375q-1.09375 -0.84375 -1.171875 -2.484375l1.625 0q0.03125 0.90625 0.71875 1.40625q0.703125 0.484375 1.921875 0.484375q1.171875 0 1.765625 -0.359375q0.609375 -0.375 0.609375 -1.09375q0 -0.671875 -0.609375 -1.046875q-0.59375 -0.390625 -2.4375 -0.765625q-1.859375 -0.359375 -2.625 -1.015625q-0.75 -0.671875 -0.75 -1.765625q0 -1.296875 1.046875 -2.046875q1.046875 -0.75 2.640625 -0.75z" fill-rule="nonzero"></path><path fill="#000000" fill-opacity="0.0" d="m490.7454 0l130.92917 0l0 38.80315l-130.92917 0z" fill-rule="evenodd"></path><path fill="#000000" d="m505.79227 13.029373q2.25 0 3.578125 1.09375q1.328125 1.09375 1.421875 3.203125l-1.71875 0q-0.15625 -1.390625 -1.0 -2.078125q-0.84375 -0.6875 -2.359375 -0.6875q-1.453125 0 -2.25 0.59375q-0.796875 0.59375 -0.796875 1.703125q0 0.796875 0.671875 1.3125q0.6875 0.515625 3.6875 1.109375q2.171875 0.453125 3.25 1.375q1.078125 0.90625 1.078125 2.546875q0 1.890625 -1.546875 2.96875q-1.546875 1.078125 -3.765625 1.078125q-2.453125 0 -4.015625 -1.234375q-1.5625 -1.234375 -1.578125 -3.5625l1.703125 0q0.03125 1.5625 1.109375 2.421875q1.09375 0.84375 2.84375 0.84375q1.640625 0 2.546875 -0.625q0.90625 -0.640625 0.90625 -1.84375q0 -0.953125 -0.828125 -1.53125q-0.828125 -0.59375 -3.0 -1.015625q-2.890625 -0.546875 -3.875 -1.40625q-0.984375 -0.875 -0.984375 -2.296875q0 -1.828125 1.375 -2.890625q1.390625 -1.078125 3.546875 -1.078125zm8.869537 4.0625l0 6.703125q0 0.828125 0.53125 1.375q0.53125 0.546875 1.46875 0.546875q1.390625 0 2.140625 -0.84375q0.765625 -0.84375 0.765625 -2.171875l0 -5.609375l1.625 0l0 9.828125l-1.53125 0l0 -1.5625l-0.03125 0q-0.546875 0.9375 -1.359375 1.375q-0.796875 0.421875 -1.84375 0.421875q-1.71875 0 -2.546875 -0.890625q-0.828125 -0.890625 -0.828125 -2.625l0 -6.546875l1.609375 0zm10.438232 -3.734375l0 5.078125l0.03125 0q0.375 -0.765625 1.1875 -1.15625q0.8125 -0.40625 1.953125 -0.40625q2.109375 0 3.3125 1.453125q1.203125 1.4375 1.203125 3.71875q0 2.28125 -1.203125 3.703125q-1.203125 1.40625 -3.265625 1.40625q-0.921875 0 -1.796875 -0.375q-0.875 -0.390625 -1.390625 -1.171875l-0.03125 0l0 1.3125l-1.625 0l0 -13.5625l1.625 0zm-0.0625 8.640625q0 1.71875 0.828125 2.71875q0.828125 1.0 2.265625 1.0q1.40625 0 2.171875 -1.0q0.78125 -1.0 0.78125 -2.78125q0 -1.59375 -0.8125 -2.609375q-0.8125 -1.03125 -2.25 -1.03125q-1.421875 0 -2.203125 1.046875q-0.78125 1.03125 -0.78125 2.65625zm12.71521 -5.125q1.984375 0 2.9375 0.78125q0.96875 0.765625 1.0625 2.28125l-1.609375 0l0 -0.015625q-0.0625 -0.78125 -0.6875 -1.203125q-0.609375 -0.421875 -1.578125 -0.421875q-0.984375 0 -1.546875 0.328125q-0.5625 0.328125 -0.5625 0.921875q0 0.53125 0.5 0.875q0.5 0.34375 1.5 0.5625l1.515625 0.34375q1.4375 0.3125 2.171875 0.96875q0.75 0.65625 0.75 1.765625q0 1.4375 -1.125 2.265625q-1.125 0.828125 -3.0625 0.828125q-1.890625 0 -3.0 -0.84375q-1.09375 -0.84375 -1.171875 -2.484375l1.625 0q0.03125 0.90625 0.71875 1.40625q0.703125 0.484375 1.921875 0.484375q1.171875 0 1.765625 -0.359375q0.609375 -0.375 0.609375 -1.09375q0 -0.671875 -0.609375 -1.046875q-0.59375 -0.390625 -2.4375 -0.765625q-1.859375 -0.359375 -2.625 -1.015625q-0.75 -0.671875 -0.75 -1.765625q0 -1.296875 1.046875 -2.046875q1.046875 -0.75 2.640625 -0.75zm10.15625 0q1.796875 0 2.921875 0.859375q1.125 0.84375 1.328125 2.515625l-1.671875 0q-0.203125 -0.953125 -0.84375 -1.453125q-0.625 -0.5 -1.59375 -0.5q-1.5 0 -2.28125 1.015625q-0.78125 1.0 -0.78125 2.828125q0 1.625 0.765625 2.609375q0.78125 0.96875 2.109375 0.96875q1.171875 0 1.84375 -0.625q0.6875 -0.640625 0.84375 -1.765625l1.65625 0q-0.265625 1.84375 -1.390625 2.84375q-1.109375 0.984375 -2.9375 0.984375q-2.140625 0 -3.375 -1.34375q-1.21875 -1.359375 -1.21875 -3.671875q0 -2.421875 1.234375 -3.84375q1.234375 -1.421875 3.390625 -1.421875zm10.817322 -0.015625q0.046875 0 0.09375 0q0.046875 0 0.125 0.015625l0 1.703125q-1.8125 0 -2.6875 0.96875q-0.859375 0.96875 -0.859375 2.984375l0 4.390625l-1.625 0l0 -9.828125l1.53125 0l0 2.078125l0.03125 0q0.5625 -1.171875 1.390625 -1.734375q0.828125 -0.578125 2.0 -0.578125zm3.0251465 -3.5l0 1.96875l-1.609375 0l0 -1.96875l1.609375 0zm0 3.734375l0 9.828125l-1.609375 0l0 -9.828125l1.609375 0zm4.1135864 -3.734375l0 5.078125l0.03125 0q0.375 -0.765625 1.1875 -1.15625q0.8125 -0.40625 1.953125 -0.40625q2.109375 0 3.3125 1.453125q1.203125 1.4375 1.203125 3.71875q0 2.28125 -1.203125 3.703125q-1.203125 1.40625 -3.265625 1.40625q-0.921875 0 -1.796875 -0.375q-0.875 -0.390625 -1.390625 -1.171875l-0.03125 0l0 1.3125l-1.625 0l0 -13.5625l1.625 0zm-0.0625 8.640625q0 1.71875 0.828125 2.71875q0.828125 1.0 2.265625 1.0q1.40625 0 2.171875 -1.0q0.78125 -1.0 0.78125 -2.78125q0 -1.59375 -0.8125 -2.609375q-0.8125 -1.03125 -2.25 -1.03125q-1.421875 0 -2.203125 1.046875q-0.78125 1.03125 -0.78125 2.65625zm13.527649 -5.125q2.109375 0 3.28125 1.53125q1.171875 1.515625 1.171875 3.890625l0 0.203125l-7.359375 0l0 0.109375q0 1.40625 0.8125 2.265625q0.828125 0.84375 2.25 0.84375q1.078125 0 1.703125 -0.5q0.640625 -0.5 0.84375 -1.421875l1.59375 0q-0.328125 1.640625 -1.4375 2.5q-1.09375 0.859375 -2.75 0.859375q-1.5625 0 -2.640625 -0.703125q-1.0625 -0.703125 -1.578125 -1.953125q-0.5 -1.25 -0.5 -2.546875q0 -2.171875 1.296875 -3.625q1.3125 -1.453125 3.3125 -1.453125zm-2.90625 4.1875l5.640625 0q-0.078125 -1.1875 -0.875 -1.96875q-0.78125 -0.796875 -1.96875 -0.796875q-1.109375 0 -1.90625 0.75q-0.78125 0.75 -0.890625 2.015625zm13.739197 -4.203125q0.046875 0 0.09375 0q0.046875 0 0.125 0.015625l0 1.703125q-1.8125 0 -2.6875 0.96875q-0.859375 0.96875 -0.859375 2.984375l0 4.390625l-1.625 0l0 -9.828125l1.53125 0l0 2.078125l0.03125 0q0.5625 -1.171875 1.390625 -1.734375q0.828125 -0.578125 2.0 -0.578125zm4.5877075 0.015625q1.984375 0 2.9375 0.78125q0.96875 0.765625 1.0625 2.28125l-1.609375 0l0 -0.015625q-0.0625 -0.78125 -0.6875 -1.203125q-0.609375 -0.421875 -1.578125 -0.421875q-0.984375 0 -1.546875 0.328125q-0.5625 0.328125 -0.5625 0.921875q0 0.53125 0.5 0.875q0.5 0.34375 1.5 0.5625l1.515625 0.34375q1.4375 0.3125 2.171875 0.96875q0.75 0.65625 0.75 1.765625q0 1.4375 -1.125 2.265625q-1.125 0.828125 -3.0625 0.828125q-1.890625 0 -3.0 -0.84375q-1.09375 -0.84375 -1.171875 -2.484375l1.625 0q0.03125 0.90625 0.71875 1.40625q0.703125 0.484375 1.921875 0.484375q1.171875 0 1.765625 -0.359375q0.609375 -0.375 0.609375 -1.09375q0 -0.671875 -0.609375 -1.046875q-0.59375 -0.390625 -2.4375 -0.765625q-1.859375 -0.359375 -2.625 -1.015625q-0.75 -0.671875 -0.75 -1.765625q0 -1.296875 1.046875 -2.046875q1.046875 -0.75 2.640625 -0.75z" fill-rule="nonzero"></path><defs><linearGradient id="p.4" gradientUnits="userSpaceOnUse" gradientTransform="matrix(6.229229759442605 0.0 0.0 6.229229759442605 0.0 0.0)" spreadMethod="pad" x1="4.676117280748842" y1="22.432950635529117" x2="4.676094649766411" y2="28.662180394930612"><stop offset="0.0" stop-color="#db0000"></stop><stop offset="1.0" stop-color="#540303"></stop></linearGradient></defs><path fill="url(#p.4)" d="m29.128609 159.14174l0 0c0 -10.715195 9.130569 -19.40158 20.3937 -19.40158l0 0c5.4087486 0 10.595966 2.0440826 14.420525 5.6825867c3.824562 3.638504 5.973175 8.573364 5.973175 13.718994l0 0c0 10.715195 -9.130569 19.401566 -20.3937 19.401566l0 0c-11.26313 0 -20.3937 -8.686371 -20.3937 -19.401566z" fill-rule="evenodd"></path><defs><linearGradient id="p.5" gradientUnits="userSpaceOnUse" gradientTransform="matrix(6.2292289364977345 0.0 0.0 6.2292289364977345 0.0 0.0)" spreadMethod="pad" x1="4.676117898511773" y1="34.75021551961276" x2="4.676095267526353" y2="40.97944445606938"><stop offset="0.0" stop-color="#51ab2a"></stop><stop offset="1.0" stop-color="#203e13"></stop></linearGradient></defs><path fill="url(#p.5)" d="m29.128609 235.86876l0 0c0 -10.715179 9.130569 -19.401566 20.3937 -19.401566l0 0c5.4087486 0 10.595966 2.0440826 14.420525 5.6825867c3.824562 3.638504 5.973175 8.573364 5.973175 13.718979l0 0c0 10.715195 -9.130569 19.40158 -20.3937 19.40158l0 0c-11.26313 0 -20.3937 -8.686386 -20.3937 -19.40158z" fill-rule="evenodd"></path><defs><linearGradient id="p.6" gradientUnits="userSpaceOnUse" gradientTransform="matrix(6.229229347965284 0.0 0.0 6.229229347965284 0.0 0.0)" spreadMethod="pad" x1="86.016462556624" y1="6.9867649137761205" x2="86.01644280594712" y2="13.215994261710094"><stop offset="0.0" stop-color="#db0000"></stop><stop offset="1.0" stop-color="#540303"></stop></linearGradient></defs><path fill="url(#p.6)" d="m535.8163 62.923885l0 0c0 -10.715195 9.130554 -19.401577 20.393677 -19.401577l0 0c5.4087524 0 10.595947 2.0440903 14.420532 5.6825905c3.824585 3.6385002 5.9732056 8.573368 5.9732056 13.7189865l0 0c0 10.715191 -9.130615 19.401577 -20.393738 19.401577l0 0c-11.263123 0 -20.393677 -8.686386 -20.393677 -19.401577z" fill-rule="evenodd"></path><defs><linearGradient id="p.7" gradientUnits="userSpaceOnUse" gradientTransform="matrix(6.229229759449882 0.0 0.0 6.229229759449882 0.0 0.0)" spreadMethod="pad" x1="86.01645687462945" y1="16.90697495187078" x2="86.01643054039536" y2="23.136204711264995"><stop offset="0.0" stop-color="#db0000"></stop><stop offset="1.0" stop-color="#540303"></stop></linearGradient></defs><path fill="url(#p.7)" d="m535.8163 124.71916l0 0c0 -10.715195 9.130554 -19.401573 20.393677 -19.401573l0 0c5.4087524 0 10.595947 2.0440826 14.420532 5.6825867c3.824585 3.638504 5.9732056 8.573364 5.9732056 13.7189865l0 0c0 10.715195 -9.130615 19.401566 -20.393738 19.401566l0 0c-11.263123 0 -20.393677 -8.686371 -20.393677 -19.401566z" fill-rule="evenodd"></path><defs><linearGradient id="p.8" gradientUnits="userSpaceOnUse" gradientTransform="matrix(6.229228936505011 0.0 0.0 6.229228936505011 0.0 0.0)" spreadMethod="pad" x1="86.0164682382834" y1="36.74740409759702" x2="86.01644190404582" y2="42.97663303404637"><stop offset="0.0" stop-color="#db0000"></stop><stop offset="1.0" stop-color="#540303"></stop></linearGradient></defs><path fill="url(#p.8)" d="m535.8163 248.30971l0 0c0 -10.715195 9.130554 -19.401566 20.393677 -19.401566l0 0c5.4087524 0 10.595947 2.0440826 14.420532 5.6825867c3.824585 3.638504 5.9732056 8.573364 5.9732056 13.718979l0 0c0 10.715195 -9.130615 19.401566 -20.393738 19.401566l0 0c-11.263123 0 -20.393677 -8.686371 -20.393677 -19.401566z" fill-rule="evenodd"></path><defs><linearGradient id="p.9" gradientUnits="userSpaceOnUse" gradientTransform="matrix(6.229229759437706 0.0 0.0 6.229229759437706 0.0 0.0)" spreadMethod="pad" x1="86.0164568747976" y1="26.827186274487833" x2="86.01643712412202" y2="33.05641603389423"><stop offset="0.0" stop-color="#51ab2a"></stop><stop offset="1.0" stop-color="#203e13"></stop></linearGradient></defs><path fill="url(#p.9)" d="m535.8163 186.51443l0 0c0 -10.715195 9.130554 -19.40158 20.393677 -19.40158l0 0c5.4087524 0 10.595947 2.044098 14.420532 5.682602c3.824585 3.6384888 5.9732056 8.573364 5.9732056 13.718979l0 0c0 10.715195 -9.130615 19.40158 -20.393738 19.40158l0 0c-11.263123 0 -20.393677 -8.686386 -20.393677 -19.40158z" fill-rule="evenodd"></path></g></svg>

